<?xml version="1.0" standalone="no"?>
<!DOCTYPE svg PUBLIC "-//W3C//DTD SVG 20010904//EN"
 "http://www.w3.org/TR/2001/REC-SVG-20010904/DTD/svg10.dtd">
<svg version="1.0" xmlns="http://www.w3.org/2000/svg"
 width="1200.000000pt" height="1200.000000pt" viewBox="0 0 1200.000000 1200.000000"
 preserveAspectRatio="xMidYMid meet">

<g transform="translate(0.000000,1200.000000) scale(0.100000,-0.100000)"
fill="white" stroke="none">
<path d="M5332 11139 c-327 -55 -605 -311 -694 -639 -18 -69 -22 -110 -22
-220 0 -167 16 -234 91 -388 88 -181 226 -314 417 -402 127 -59 200 -74 356
-74 110 0 151 4 220 22 298 81 538 317 620 612 27 95 36 261 21 360 -75 480
-530 808 -1009 729z m-315 -588 c148 -68 118 -292 -44 -326 -46 -9 -112 12
-149 49 -84 84 -62 219 46 274 54 27 92 28 147 3z"/>
<path d="M5583 9221 c-85 -40 -211 -250 -253 -421 -20 -81 -39 -300 -27 -300
3 0 54 38 112 85 59 47 110 85 113 85 4 0 34 5 67 10 33 6 110 10 170 10 281
1 426 -116 427 -345 1 -79 -27 -192 -69 -282 -21 -45 -59 -90 -168 -198 -78
-77 -185 -176 -238 -220 -64 -52 -96 -85 -93 -95 2 -8 25 -65 50 -126 25 -61
58 -156 72 -210 25 -88 28 -117 28 -259 1 -141 -2 -169 -22 -235 -47 -149
-113 -252 -327 -510 -216 -261 -305 -405 -370 -604 -87 -267 -143 -638 -177
-1186 -13 -217 -17 -1188 -5 -1207 6 -10 93 -13 378 -13 l369 0 0 33 c0 76 21
670 30 872 37 782 146 1249 338 1456 87 95 128 110 504 194 194 43 344 129
490 278 118 121 166 209 211 385 19 76 21 114 21 292 0 217 -9 290 -60 495
-80 315 -245 693 -451 1031 -401 659 -893 1092 -1120 985z"/>
<path d="M5609 8581 c-36 -5 -62 -20 -115 -62 -414 -334 -875 -592 -1277 -713
-139 -42 -234 -61 -406 -82 -210 -25 -348 -71 -482 -160 -237 -157 -386 -445
-335 -644 30 -117 96 -169 211 -170 64 0 332 43 536 85 747 157 1331 421 1853
839 129 103 413 380 436 426 80 156 79 343 -1 417 -55 51 -115 67 -249 69 -69
1 -146 -1 -171 -5z"/>
<path d="M8163 7429 c-130 -41 -252 -155 -305 -286 l-23 -58 -3 -564 c-2 -384
1 -581 8 -617 42 -200 214 -351 427 -375 56 -6 527 -9 1274 -7 1113 3 1187 4
1239 22 154 50 269 164 320 315 20 61 21 76 18 649 l-3 587 -37 78 c-44 91
-127 181 -204 220 -119 60 -41 57 -1403 56 -1212 0 -1248 -1 -1308 -20z"/>
<path d="M2391 7260 c-51 -12 -112 -60 -139 -110 -20 -38 -23 -56 -20 -112 3
-56 9 -75 35 -112 31 -44 32 -46 16 -74 l-17 -29 -115 5 c-196 8 -337 -45
-466 -173 -121 -121 -179 -259 -179 -430 0 -213 100 -398 277 -515 113 -74
295 -114 415 -92 l52 9 0 -583 0 -584 -313 0 c-345 0 -382 -5 -489 -62 -69
-36 -165 -135 -197 -202 -50 -101 -51 -117 -51 -672 l0 -522 -109 -4 c-92 -3
-115 -7 -138 -24 -98 -73 -98 -195 0 -268 28 -20 41 -21 411 -24 l383 -3 7 32
c3 17 6 48 6 68 0 50 34 205 65 298 76 227 249 448 461 589 111 74 216 121
353 157 109 29 127 31 296 31 153 0 193 -3 265 -22 47 -12 88 -22 93 -22 11 0
9 199 -3 261 -25 131 -124 266 -239 328 -65 35 -157 61 -213 61 l-38 0 -2
1168 c-2 642 -7 1175 -12 1185 -7 15 -2 17 58 17 36 0 66 2 66 5 0 2 -7 30
-15 62 -8 31 -15 78 -15 104 0 41 35 202 55 252 7 16 -9 17 -251 16 -143 -1
-274 -5 -293 -9z"/>
<path d="M6212 5360 c-120 -29 -194 -173 -146 -288 34 -83 110 -132 204 -132
39 0 62 -4 65 -12 3 -7 6 -444 7 -971 l3 -957 -1134 0 -1134 0 6 -32 c4 -18
13 -69 21 -113 9 -44 15 -101 16 -127 l0 -48 1219 0 1220 0 6 58 c35 338 154
597 367 797 152 143 316 235 517 288 109 29 127 31 296 31 172 1 185 -1 299
-32 239 -65 431 -182 588 -360 74 -83 161 -219 198 -309 44 -104 87 -280 96
-387 l7 -86 344 0 c376 0 383 1 437 59 24 25 30 42 34 88 3 48 0 64 -20 92
-43 63 -68 75 -171 79 l-92 4 3 957 c1 526 4 962 7 969 3 8 25 12 64 12 74 0
99 9 150 55 106 96 87 269 -37 342 l-47 28 -1680 2 c-924 0 -1695 -2 -1713 -7z"/>
<path d="M2740 3696 c-324 -68 -592 -276 -735 -571 -102 -210 -126 -473 -65
-710 29 -114 116 -284 195 -382 375 -466 1072 -514 1509 -103 428 403 434
1078 14 1486 -137 133 -282 216 -466 266 -99 26 -354 34 -452 14z m340 -682
c77 -35 145 -105 186 -189 29 -60 34 -80 34 -145 0 -63 -5 -85 -31 -140 -39
-84 -97 -143 -181 -186 -61 -31 -76 -34 -150 -34 -71 0 -92 4 -144 29 -85 40
-139 93 -180 173 -31 62 -34 75 -34 158 0 83 3 96 34 158 41 80 90 129 171
170 53 28 70 31 150 31 76 1 99 -3 145 -25z"/>
<path d="M7590 3704 c-14 -3 -61 -14 -104 -25 -347 -88 -630 -363 -730 -711
-190 -658 306 -1318 989 -1318 395 0 750 220 928 575 129 257 140 566 31 842
-94 239 -314 465 -548 562 -140 58 -215 73 -386 76 -85 2 -166 1 -180 -1z
m300 -690 c77 -35 145 -105 186 -189 29 -60 34 -80 34 -145 0 -65 -5 -85 -34
-145 -41 -86 -100 -144 -186 -184 -56 -27 -77 -31 -145 -31 -68 0 -90 5 -141
29 -85 40 -139 93 -180 173 -31 62 -34 75 -34 159 0 82 3 98 31 153 40 80 90
130 169 171 59 31 73 34 155 34 76 1 99 -3 145 -25z"/>
<path d="M7037 813 c-4 -3 -7 -19 -7 -35 0 -29 -10 -33 -67 -28 -13 1 -23 -3
-23 -9 0 -5 -13 -3 -28 6 -38 22 -91 11 -126 -26 -55 -58 -42 -162 24 -196 35
-18 91 -20 108 -3 9 9 12 9 12 -3 0 -41 -82 -55 -113 -19 -18 22 -57 27 -57 8
0 -7 12 -25 27 -40 23 -24 34 -28 83 -28 50 0 60 4 85 30 28 29 30 36 33 130
4 90 6 100 23 100 17 0 19 -8 19 -74 0 -69 2 -76 26 -95 30 -24 50 -27 57 -8
4 9 6 9 6 0 1 -7 10 -13 21 -13 17 0 19 8 22 88 3 80 5 88 26 97 16 7 22 17
20 35 -2 16 -8 24 -18 21 -14 -3 -55 -4 -92 -2 -13 1 -18 9 -18 30 0 17 -6 31
-16 35 -19 7 -19 7 -27 -1z m-126 -122 c30 -24 32 -97 3 -118 -24 -17 -78 -17
-93 1 -24 28 -24 79 -1 109 25 32 58 35 91 8z m199 -62 c0 -52 -3 -70 -12 -67
-8 3 -14 29 -16 71 -2 55 0 67 13 67 12 0 15 -14 15 -71z"/>
<path d="M6358 746 c-16 -8 -28 -11 -28 -5 0 5 -7 9 -15 9 -13 0 -15 -24 -15
-155 0 -85 3 -155 8 -155 23 1 34 20 30 54 -4 35 4 47 17 26 3 -5 26 -10 50
-10 36 0 50 6 79 34 32 30 36 39 36 85 0 44 -5 56 -32 86 -39 42 -89 54 -130
31z m75 -48 c50 -26 61 -76 25 -115 -25 -27 -79 -31 -102 -7 -25 25 -21 98 7
117 27 19 42 20 70 5z"/>
<path d="M6606 753 c-4 -5 -22 -8 -39 -8 l-32 0 0 -115 c0 -112 1 -115 23
-118 21 -3 22 -1 22 75 0 66 3 83 20 101 25 27 51 28 73 4 13 -14 17 -38 17
-100 0 -74 2 -82 19 -82 27 0 32 22 24 114 -5 70 -10 84 -34 108 -27 27 -76
38 -93 21z"/>
<path d="M7260 734 c-35 -30 -60 -73 -60 -104 0 -26 44 -96 69 -110 11 -5 38
-10 61 -10 33 0 48 7 76 34 20 19 33 40 29 45 -10 17 -39 13 -58 -9 -24 -28
-80 -27 -109 3 -27 26 -32 24 100 29 75 3 82 1 82 -16 0 -10 16 -34 36 -52 49
-47 108 -48 159 -3 19 17 35 37 35 45 0 21 -43 17 -63 -6 -29 -35 -117 -19
-117 21 0 5 41 9 90 9 l90 0 0 38 c-1 59 -55 112 -117 112 -38 0 -90 -40 -109
-85 -11 -24 -13 -26 -14 -9 0 12 -18 38 -40 58 -50 45 -94 48 -140 10z m113
-46 l22 -23 -64 -3 c-35 -2 -66 0 -70 3 -10 11 39 45 65 45 13 0 34 -10 47
-22z m235 6 c36 -25 25 -34 -43 -34 -36 0 -65 4 -65 9 0 15 42 41 65 41 11 0
31 -7 43 -16z"/>
<path d="M4406 628 c-11 -50 -21 -100 -24 -110 -4 -16 3 -18 51 -18 31 0 67 4
81 10 38 14 66 66 66 123 0 67 -22 87 -98 87 l-58 0 -18 -92z m115 52 c27 -15
26 -79 -2 -114 -15 -19 -30 -26 -55 -26 -19 0 -34 3 -34 8 0 6 11 56 25 120 6
24 33 29 66 12z"/>
<path d="M4990 705 c0 -8 9 -15 20 -15 11 0 20 7 20 15 0 8 -9 15 -20 15 -11
0 -20 -7 -20 -15z"/>
<path d="M5710 698 c0 -35 -16 -56 -32 -40 -34 34 -96 -10 -105 -74 -3 -23 0
-51 6 -63 11 -19 19 -21 74 -19 l61 3 9 40 c4 22 14 70 21 108 l13 67 -24 0
c-17 0 -23 -6 -23 -22z m-30 -107 c0 -42 -18 -65 -47 -59 -40 8 -19 98 23 98
21 0 24 -5 24 -39z"/>
<path d="M5860 623 c-12 -54 -23 -104 -25 -110 -3 -8 5 -13 20 -13 14 0 25 5
25 12 0 9 3 9 12 0 7 -7 24 -12 39 -12 39 0 69 41 69 96 0 36 -5 47 -26 61
-22 14 -29 14 -46 4 -20 -12 -20 -11 -14 23 6 31 4 36 -13 36 -16 0 -23 -15
-41 -97z m98 -25 c4 -36 -14 -68 -38 -68 -28 0 -37 43 -15 76 21 32 49 28 53
-8z"/>
<path d="M4664 660 c-50 -20 -70 -93 -38 -138 18 -27 84 -31 108 -6 24 23 20
25 -31 22 -38 -2 -48 0 -51 15 -3 15 4 17 52 17 56 0 56 0 56 30 0 53 -44 81
-96 60z m51 -50 c0 -9 -11 -16 -27 -18 -27 -3 -38 14 -21 32 12 12 48 2 48
-14z"/>
<path d="M4814 647 c-37 -32 -26 -63 27 -78 46 -14 53 -39 10 -39 -17 0 -33 5
-36 10 -7 12 -45 13 -45 2 0 -21 39 -42 76 -42 53 0 77 18 72 55 -2 25 -10 32
-45 43 -60 19 -55 36 7 27 55 -8 65 3 28 29 -31 22 -62 20 -94 -7z"/>
<path d="M5071 656 c-29 -16 -39 -38 -40 -84 -2 -63 30 -88 79 -62 15 8 17 6
13 -10 -8 -32 -31 -46 -54 -32 -26 17 -49 15 -49 -3 0 -38 109 -44 129 -7 4 9
16 51 26 92 9 41 19 83 22 93 3 12 -1 17 -16 17 -11 0 -23 -5 -26 -10 -4 -7
-14 -5 -28 5 -26 18 -25 18 -56 1z m67 -57 c4 -33 -29 -75 -51 -66 -19 7 -22
48 -6 78 15 29 53 21 57 -12z"/>
<path d="M5317 663 c-5 -4 -24 -7 -44 -8 l-37 0 -16 -77 -17 -78 23 0 c19 0
24 8 33 52 13 60 26 78 53 78 16 0 19 -5 15 -22 -4 -13 -9 -42 -13 -65 -6 -39
-5 -43 14 -43 17 0 23 11 35 63 11 49 11 66 2 82 -13 22 -36 30 -48 18z"/>
<path d="M5444 658 c-44 -21 -60 -111 -26 -141 24 -22 85 -22 103 -1 10 13 10
17 -1 24 -7 5 -21 4 -30 -2 -21 -14 -50 -4 -50 17 0 12 12 15 55 15 52 0 55 1
55 25 0 30 -41 75 -67 74 -10 0 -28 -5 -39 -11z m59 -42 c7 -18 -1 -26 -28
-26 -29 0 -37 10 -24 27 15 17 45 17 52 -1z"/>
<path d="M4975 648 c-7 -22 -25 -118 -25 -133 0 -8 9 -15 19 -15 15 0 22 14
35 71 9 39 16 75 16 80 0 14 -40 11 -45 -3z"/>
<path d="M6046 579 c14 -89 12 -105 -17 -114 -25 -8 -25 -35 0 -35 30 0 56 29
115 133 52 91 54 97 33 97 -18 0 -30 -13 -52 -57 l-29 -58 -10 58 c-8 49 -12
57 -31 57 -22 0 -22 0 -9 -81z"/>
</g>
</svg>
